# xmcd
#
# Track frame offsets:
#	150
#	17542
#	24843
#	39450
#	52144
#	58103
#	65842
#	77571
#	87541
#	108619
#	116301
#	132600
#	140318
#	156797
#	161929
#	175381
#	188498
#	199584
#	211023
#	218484
#	236251
#	243904
#	255772
#	262922
#	279980
#	287221
#	299011
#	317447
#
# Disc length: 4305 seconds
#
# Revision: 0
# Processed by: cddbd v1.5.1PL0 Copyright (c) Steve Scherf et al.
# Submitted via: audiograbber 1.81.02
#
DISCID=8c10cf1c
DTITLE=Tim Thomas - Freddy der Esel - spezial - Solo für Henning (www.gerth.de)
DYEAR=2004
DGENRE=Musical
TTITLE0=Henning Hahns Aufschneidersolo
TTITLE1=Hennings erster Auftritt
TTITLE2=Hennings Song
TTITLE3=Henning über die Jugend und Zwistigkeiten
TTITLE4=Guten-Morgen_Country-Song
TTITLE5=Der Feind ist besiegt
TTITLE6=Hennings Mut
TTITLE7=Henning-die Flunkernase
TTITLE8=Bin ein grosses Abenteuer-Ich hab Angst
TTITLE9=Da ist er
TTITLE10=Freddy macht Henning Mut
TTITLE11=Leise-leise-keinen Lärm gemacht
TTITLE12=Freddy über die Angst
TTITLE13=Hab keine Angst vor der Angst
TTITLE14=Der Feind ist besiegt
TTITLE15=Alle Tiere feiern Henning
TTITLE16=Ein Hund muss her
TTITLE17=Der Auftrag
TTITLE18=Ständchen für Henning
TTITLE19=Hoch-Henning Hood
TTITLE20=Acapella Männerchor
TTITLE21=Das gibts doch nicht
TTITLE22=König Eugen
TTITLE23=Anschleichsong mit Tumult
TTITLE24=Hab ich dich
TTITLE25=Hennings rhetorischer Walzer
TTITLE26=Schlusslied
TTITLE27=Daten-CD
EXTD=
EXTT0=
EXTT1=
EXTT2=
EXTT3=
EXTT4=
EXTT5=
EXTT6=
EXTT7=
EXTT8=
EXTT9=
EXTT10=
EXTT11=
EXTT12=
EXTT13=
EXTT14=
EXTT15=
EXTT16=
EXTT17=
EXTT18=
EXTT19=
EXTT20=
EXTT21=
EXTT22=
EXTT23=
EXTT24=
EXTT25=
EXTT26=
EXTT27=
PLAYORDER=
